/* XPM */
static char * linux_xpm[] = {
"48 20 114 2",
"  	c None",
". 	c #6382C6",
"+ 	c #6080C1",
"@ 	c #405580",
"# 	c #5571AB",
"$ 	c #95AAD5",
"% 	c #718DC7",
"& 	c #CAD4EA",
"* 	c #829BCE",
"= 	c #5C7DBD",
"- 	c #000000",
"; 	c #3D537E",
"> 	c #C8D3E9",
", 	c #FFFFFF",
"' 	c #92A8D3",
") 	c #7F99CB",
"! 	c #B6C4E1",
"~ 	c #587AB9",
"{ 	c #3A517B",
"] 	c #A2B4D8",
"^ 	c #B4C3DF",
"/ 	c #8FA6D0",
"( 	c #D9E1EF",
"_ 	c #ECEFF7",
": 	c #5577B5",
"< 	c #384F78",
"[ 	c #1C273C",
"} 	c #263550",
"| 	c #4B69A1",
"1 	c #2F4264",
"2 	c #283141",
"3 	c #555555",
"4 	c #AAAAAA",
"5 	c #D9E0EE",
"6 	c #A0B3D5",
"7 	c #6785BD",
"8 	c #C6D1E6",
"9 	c #5174B1",
"0 	c #364D76",
"a 	c #1B263B",
"b 	c #48679D",
"c 	c #090D14",
"d 	c #121927",
"e 	c #393939",
"f 	c #C5D0E5",
"g 	c #6483B9",
"h 	c #8BA2CB",
"i 	c #9EB1D3",
"j 	c #4E71AD",
"k 	c #344B73",
"l 	c #22324D",
"m 	c #080C13",
"n 	c #3C5887",
"o 	c #45649A",
"p 	c #C4CFE3",
"q 	c #4D607F",
"r 	c #D7DFEC",
"s 	c #89A0C8",
"t 	c #6180B6",
"u 	c #AFBFDA",
"v 	c #4A6FA9",
"w 	c #314A70",
"x 	c #101825",
"y 	c #182538",
"z 	c #2C3541",
"A 	c #333A45",
"B 	c #869FC5",
"C 	c #AEBED8",
"D 	c #EAEEF5",
"E 	c #D6DEEB",
"F 	c #C2CFE2",
"G 	c #466CA5",
"H 	c #2E486E",
"I 	c #1F3049",
"J 	c #3C5274",
"K 	c #B5B9BE",
"L 	c #C1CEE1",
"M 	c #D5DEEA",
"N 	c #ACBDD6",
"O 	c #839DC3",
"P 	c #5A7CAE",
"Q 	c #4369A1",
"R 	c #2C466B",
"S 	c #162335",
"T 	c #253A59",
"U 	c #E9EDF4",
"V 	c #AABBD4",
"W 	c #819BC0",
"X 	c #C0CDDF",
"Y 	c #5779AB",
"Z 	c #D4DDE9",
"` 	c #3F669D",
" .	c #2A4468",
"..	c #314F7A",
"+.	c #233857",
"@.	c #070B11",
"#.	c #7F8894",
"$.	c #727272",
"%.	c #BFCCDE",
"&.	c #7F99BD",
"*.	c #D4DCE9",
"=.	c #94A9C8",
"-.	c #3B6399",
";.	c #274266",
">.	c #060B11",
",.	c #2E4D77",
"'.	c #151719",
").	c #BDCBDD",
"!.	c #6685AF",
"~.	c #91A8C6",
"{.	c #5074A4",
"].	c #376094",
"^.	c #244062",
"/.	c #376095",
"                                                                                                ",
"                                                                                                ",
"                                                                                                ",
". . . . . . . . . . . . . . . . . . . . . . . . . . . . . . . . . . . . . . . . . . . . . . . . ",
". . . . . . . . . . . . . . . . . . . . . . . . . . . . . . . . . . . . . . . . . . . . . . . . ",
"+ + + + @ @ # + + + + + + + + + + $ $ $ + + + $ $ $ % + + % $ $ % & & & & * + + * & & & & + + + ",
"= = = = - - ; = = = = = = = = = = > , , ' = = , , , > = = > , , ) , , , , ! = = > , , , , = = = ",
"~ ~ ~ ~ - - { ~ ~ ~ ~ ~ ~ ~ ~ ~ ~ ] , , ^ ~ / , , , ( ~ ~ _ , _ ~ , , , , ( ~ ~ _ , , , , ~ ~ ~ ",
": : : : - - < : : < [ [ } | : : 1 2 3 4 5 : 6 , , , , : 7 , , 8 : , , , , , : 7 , , , , , : : : ",
"9 9 9 9 - - 0 9 a - - - - 0 b c - d e - 3 9 f , , , , g h , , h 9 , , , , , h i , , f , , 9 9 9 ",
"j j j j - - k l - m n j o o l - l j p e - q r , r , , s p , , t j , , p , , u p , p p , , j j j ",
"v v v v - - w x - w v v v v m - x y z e - A , , B , , C D , E v v , , F F , E , , B F , , v v v ",
"G G G G - - H - - H G G G G - - I H J 4 4 K , , G L , M , , N G G , , L O , , , , P L , , G G G ",
"Q Q Q Q - - R S - T Q Q Q Q S - T Q Q U , , , U Q V , , , , W Q Q , , X Y , , , Z Q X , , Q Q Q ",
"` ` ` ` - -  ...- - +. . .....- @.+. .#.$., , %.` &., , , , ` ` ` , , %.` *., , =.` %., , ` ` ` ",
"-.-.-.-.- - ;.-.;.>.- - - ,.-.;.>.- - - '.).).!.-.-.).).).~.-.-.-.).).~.-.~.).).{.-.~.).).-.-.-.",
"].].].].].].].].].].^.^.].].]./././././././././././././././././././././././././././././././././.",
"].].].].].].].].].].].].].].].].].].].].].].].].].].].].].].].].].].].].].].].].].].].].].].].].",
"                                                                                                ",
"                                                                                                "};
